<svg width="0" height="0" class="hidden">
  <symbol version="1.0" xmlns="http://www.w3.org/2000/svg" viewBox="0 0 300 169" id="zjNnrY01">
    <path d="M49 3.5V7h125.8c80.5 0 125.1-.4 124.1-1-.9-.5-2-2.1-2.3-3.5-.7-2.6-2-3.2-3.1-1.5-.3.5.1 1 .9 1 1.9 0 2.2 3 .4 3.1-.7 0-2.6.3-4.1.5-1.9.3-2.7.1-2.6-.8.8-5-4.8-6.7-5.7-1.8-.6 2.5-1.1 3-3.6 3-1.8 0-2.7-.4-2.3-1 .4-.6.1-1.7-.5-2.6-1-1.1-1.6-1.2-2.7-.3-.8.7-1.2 1.8-.9 2.4.3 1-22.9 1.3-107.4 1.4L57.1 6l-1.2-2.3C54.5 1 53.1 0 50.8 0 49.4 0 49 .8 49 3.5zm5.5-.6c.7 1.2-1.2 2.4-2.5 1.6-1.1-.7-.4-2.5 1-2.5.5 0 1.1.4 1.5.9zm231.5.6c0 .8-.7 1.5-1.5 1.5-1.6 0-2-1.2-.8-2.3 1.1-1.2 2.3-.8 2.3.8zm-10.3.1c-.3.3-1.2.4-1.9.1-.8-.3-.5-.6.6-.6 1.1-.1 1.7.2 1.3.5z"></path>
    <path d="M0 2.8c0 1 .5 2.3 1.2 3 .9.9.9 1.5 0 2.4-.7.7-1.2 2.7-1.2 4.5V16h104.1c73.3 0 103.8.3 103.4 1.1-.4.6-.8 6.6-.8 13.5l-.2 12.4h49.7l-.4-13.5-.3-13.5H300l-.6-2.8c-.9-3.8-1.9-4.6-4.9-3.8-1.8.5-2.5 1.2-2.1 2.1.3.8.1 1.7-.4 2-.4.3-1-.1-1.3-.7-.3-1-.7-1-2.1.1-1.8 1.5-2.9 1-3.2-1.4-.1-.8.4-1.5 1.2-1.5.9 0 1.2.4.9 1-.3.5-.2 1 .4 1 1.2 0 2.5-2 1.4-2.1-4.5-.7-19.4-.5-19.9.3-.3.5-1.1.4-1.9-.2-1.9-1.6-5.5-.3-5.5 1.9 0 1.8-.9 2-14 2.4-6.4.2-6.5.2-7.1-2.8l-.7-3-.1 3.1-.1 3.1-72.2-.4c-39.7-.2-72.5-.6-73-.9-.5-.3-6.6-.5-13.6-.4-16.8.3-17.2.2-17.2-1.4 0-3.5-5.9-2.7-6.1.8-.1 1.9-.2 1.8-.8-.4-1-3.7-4.7-3.5-4.4.2.1 1.6-.2 2.8-.8 2.8-.5 0-1-1.5-1-3.3-.2-3-.2-3-.6-.5l-.4 2.8H39.4c-9.5 0-10.4-.2-10.4-1.9 0-2.9-2.8-4.7-5.1-3.3-1.5 1-2.3.9-4 0-1.7-1.1-2.2-1-3.4.6-1.1 1.4-1.8 1.6-2.8.8-.7-.6-2.2-.9-3.3-.6-1.2.3-2.3-.2-3-1.3-1-1.7-.4-1.8 10.9-1.6 11 .2 12.2 0 13.4-1.8 1.8-2.4 8.8-2.6 11.4-.3C45.3 6.6 48 5.8 48 3c0-2-.5-2-24-2C1.6 1 0 1.1 0 2.8zm5 .6c0 .8-.4 1.7-.9 2.1-1.2.7-2.4-1.2-1.6-2.5.9-1.5 2.5-1.2 2.5.4zm9.3-.2c2.6-.1 4.7.2 4.7.8 0 .6-2.6 1-6 1-4.8 0-6-.3-6-1.6 0-1 .4-1.2 1.3-.7.6.4 3.3.6 6 .5zm32.4.5c0 .7-.6 1.3-1.4 1.3-.7 0-1.3-.6-1.3-1.3 0-.8.6-1.4 1.3-1.4.8 0 1.4.6 1.4 1.4zM31 4c0 .5-.3 1-.7 1.1-6.6.5-10.3.2-10.3-.9 0-.8 1.8-1.2 5.5-1.2 3 0 5.5.4 5.5 1zM7.4 10.2c.8 1.4.7 2.2-.6 3.5-1 .9-2.1 1.3-2.5.9-.4-.4-.1-1.1.7-1.6 1.1-.7 1-.9-.7-.7-1.2 0-1.9.5-1.7.9.3.4 0 .8-.5.8-1.5 0-1.4-3.3.1-4.8C3.8 7.6 6 8 7.4 10.2zm6 .7c.3.5-.2 1.5-1.1 2.2-1.2 1-1.4 1-.9.1.4-.7.2-1.2-.4-1.2-.6 0-.8-.5-.5-1 .8-1.2 2.2-1.3 2.9-.1zm7.6 0c0 1.3-2.6 3.2-3.3 2.4C16.3 12 17.1 10 19 10c1.1 0 2 .4 2 .9zm6.3-.3c.9 1-.4 3.4-1.9 3.4-.8 0-1.4-.6-1.4-1.3 0-2.2 1.9-3.5 3.3-2.1zm28.5 1.1c-.4 2.2-2.2 2-2.6-.1-.2-1 .3-1.6 1.3-1.6s1.5.7 1.3 1.7zm6.6-.2c.4 1-.1 1.5-1.4 1.5-1.3 0-1.8-.5-1.4-1.5.4-.8 1-1.5 1.4-1.5.4 0 1 .7 1.4 1.5zm205 .1c.4.9.4 1.9.1 2.2-.3.3-.5 0-.5-.6s-.7-.9-1.5-.6c-.9.4-1.5 0-1.5-1 0-2.1 2.6-2.1 3.4 0zm7.4.1c-.2 1-1 1.8-1.8 1.8s-1.6-.8-1.8-1.8c-.2-1.2.3-1.7 1.8-1.7s2 .5 1.8 1.7zm6.5-.2c.1.5-.6 1.1-1.5 1.3-1.1.2-1.8-.3-1.8-1.3 0-1.7 3-1.8 3.3 0zm15.7 0c0 .8-.7 1.5-1.5 1.5s-1.5-.7-1.5-1.5.7-1.5 1.5-1.5 1.5.7 1.5 1.5zm-43.4 15c.1 14.8 1.6 13.5-14.8 13.5h-14.1l2.7-2.1c3.3-2.6 5.8-7.2 5.4-10.2-.6-3.9-4.3-7.8-8.2-8.4-6.7-1.1-12.6 3.5-12.6 9.9 0 3.3 3.9 8.8 7 10.1.8.3-1.1.6-4.2.6l-5.7.1-.3-11.6c-.2-6.4-.1-11.8.1-12 .3-.2 10.4-.3 22.5-.2l22 .3.2 10zm-26.2-3.4c2 1.6 2.6 2.9 2.6 5.9 0 3-.6 4.3-2.6 5.9-3.7 2.9-7 2.6-10.5-.8-3.6-3.6-3.7-6-.3-10 3.1-3.7 6.9-4.1 10.8-1z"></path>
    <path d="M235.8 22.7c-2.4 2.7-2 10 .5 11.8 1.3.9 2.5 1.1 3.1.5.5-.5 1.6-.6 2.6 0 2.7 1.5 5.8-2 5.5-6.4-.3-4.6-2.2-6.9-5.2-6.3-1.3.2-2.6 0-2.9-.4-.8-1.4-1.9-1.1-3.6.8zm4 2.5c.8.8 1.5.8 2.4 0 .8-.6 1.9-.7 2.6-.3 1 .6.9 1.1-.3 2.1-1.4 1.2-1.4 1.5.1 3.1 1.6 1.7 1.6 1.9-.1 2.5-1 .4-2 .1-2.5-.6-.7-1.1-1.1-1.1-2.4-.1-2.3 1.9-4.1.3-2.1-1.9 1.5-1.7 1.5-1.9-.1-2.8-.9-.5-1.4-1.4-1-2.1.9-1.4 1.9-1.4 3.4.1zm-20-.1c-2.8 1.6-2.3 6.7.7 8.1 4.6 2.1 8.6-4 4.9-7.6-1.8-1.8-3.2-2-5.6-.5zm4.2 4.5c0 .8-.6 1.4-1.4 1.4-1.8 0-2.9-2.7-1.3-3.3 1.6-.6 2.7.1 2.7 1.9zm68-25.5c0 .5.5.7 1 .4.6-.3 1-.8 1-1.1 0-.2-.4-.4-1-.4-.5 0-1 .5-1 1.1zM78 10l-4.5.6 3.8.5c2 .3 4.2 0 4.7-.5.6-.6 1-.6 1 0 0 .5 2.2.8 5.1.7 3.1-.2 5.8.2 6.7.9 1.3 1.1 1.4 1 1-.2-.5-1.7-10.5-2.8-17.8-2zm152.8-.3c2.5.5 2.8 1.3 1.1 3-.9.9-.7 1.2 1 1 1.1-.1 2.1-.7 2.1-1.5 0-.7.5-1 1.2-.6.7.5.8.3.3-.6-.6-1-.4-1.2.9-.7.9.4 1.5.3 1.2-.2-.3-.4-2.7-.8-5.3-.8-2.6.1-3.8.2-2.5.4zm-164 1c1.2.2 3 .2 4 0 .9-.3-.1-.5-2.3-.4-2.2 0-3 .2-1.7.4zm154.8.2c-.9 1.4 1.6 2.8 5.1 2.8 2.8 0 3-.2 2-1.9-1.2-1.9-6.1-2.5-7.1-.9zm4.7.8c-.7.2-2.1.2-3 0-1-.3-.4-.5 1.2-.5 1.7 0 2.4.2 1.8.5zM40.3 20c.4 1.8.7 3.7.7 4.2 0 2.2 2.5-.1 3.1-2.8l.6-2.9.8 3.2c.9 3.7 2.1 4.3 2.9 1.3.3-1.1.9-2.9 1.2-4 .3-1.1.1-2-.5-2s-1.1 1.2-1.2 2.7l-.1 2.8-1.1-2.8c-.6-1.5-1.4-2.7-1.8-2.7-.4 0-1.2 1.2-1.7 2.7-.9 2.5-1.1 2.5-1.1.6-.1-1.2-.6-2.5-1.3-2.9-.8-.5-.9.2-.5 2.6zm10.9 1c0 2.5.2 3.6.5 2.5.8-3.4 2.3-4.1 2.3-1.2 0 1.5.5 2.7 1 2.7.6 0 1-1.4 1-3 0-2.3-.5-3-1.9-3-1.1 0-2.2-.6-2.4-1.3-.3-.6-.5.8-.5 3.3zm6.2-.5c-.4.9 0 2.3.8 3.1 2 2 5 .7 4.6-2-.4-2.6-4.5-3.5-5.4-1.1zm3.8 1c0 .5-.5 1.1-1.1 1.3-.6.2-1.1-.4-1.1-1.3s.5-1.5 1.1-1.3c.6.2 1.1.8 1.1 1.3zm3.2-1c-.8 2.1.2 4.5 1.9 4.5 2 0 4-2.7 3.3-4.5-.7-1.9-4.5-2-5.2 0zm3.6 1c0 .8-.4 1.5-.9 1.5-1.3 0-2.2-1.6-1.4-2.4 1.1-1.1 2.3-.6 2.3.9zm3 1.5c0 2.2.4 4 1 4 .5 0 .7-.6.4-1.4-.3-.9.1-1.3 1.3-1.3 1.3.2 1.9-.6 2.1-2.6.3-2.3 0-2.7-2.2-2.7-2.4 0-2.6.4-2.6 4zm4-1.6c0 .8-.4 1.7-.9 2.1-1.2.7-2.4-1.2-1.6-2.5.9-1.5 2.5-1.2 2.5.4zm2.5-1.3c-.4.6.2 1.3 1.4 1.6 1.1.3 1.8.9 1.6 1.4-.3.4-1.3.5-2.2.2-1.1-.4-1.4-.3-.9.5 1 1.7 3.1 1.5 4.6-.4 1.1-1.3 1-1.6-1-2.1-2.2-.6-2.3-.7-.4-1.4 1.8-.7 1.8-.8-.3-.8-1.2-.1-2.5.4-2.8 1zm118.6 2c-3.5 1-6.8 2.2-7.3 2.7-.6.6.1 4.9 1.7 10.9l2.7 10 5.7-1.6c4.4-1.3 5.7-2.2 5.9-3.9.3-1.8-.2-2.2-2.2-2.2-2.9 0-6.6-3.5-6.6-6.2 0-2.8 4.7-7.1 7.1-6.5 1.6.4 1.9 0 1.9-2.4 0-3.3-.2-3.3-8.9-.8zm.9 2.4c0 .4-.7 1.9-1.5 3.4-2.2 4.3-.3 9.9 3.7 11.3l3 1.1-3.3 1.4c-1.8.7-3.6 1-4.1.5-.4-.4-1.6-4.1-2.7-8.2l-1.9-7.5 2.6-1.2c3-1.4 4.2-1.6 4.2-.8zm-110-.4c0 .5.5.7 1 .4.6-.3 1-.8 1-1.1 0-.2-.4-.4-1-.4-.5 0-1 .5-1 1.1zm3-.1c0 .5.5 1 1 1 .6 0 1-.5 1-1 0-.6-.4-1-1-1-.5 0-1 .4-1 1z"></path>
    <path d="M200.1 29.4c-2 2.4-.9 5.1 2.2 5.4 2.7.3 2.8.1 2.5-3-.3-3.6-2.7-4.8-4.7-2.4zM204 32c0 .5-.7 1-1.5 1s-1.5-.5-1.5-1c0-.6.7-1 1.5-1s1.5.4 1.5 1zM39.7 35.9c.4 1.7 4.3 2.7 4.3 1.1 0-1.1-1.6-2.5-3.2-2.8-1.2-.2-1.5.3-1.1 1.7zm5 .2c.6 2.2 2.3 2.6 2.3.5 0-.8-.6-1.6-1.4-1.9-1-.4-1.2 0-.9 1.4zm13.3.3c0 1.7.2 1.8 1 .6.7-1.1 1-1.2 1-.2 0 1.8 5.1 1.2 6.8-.8 1-1.3 1.1-1.3.6.2-.3 1-.1 1.8.5 1.8s1.1-.5 1.1-1.2c0-.6.7-.3 1.5.8 1.2 1.6 1.6 1.7 2.4.4 1.1-1.7.4-3.3-1.2-2.7-.7.2-2 0-2.9-.4-.9-.5-1.9-.5-2.2 0-.3.4-2.4.5-4.6.1-3.6-.7-4-.5-4 1.4zm57.7-1.8c-.3.4-3.2.7-6.4.8-8.1.2-7.3 2.1 1 2.3 6 .2 6.7 0 6.7-1.8 0-2-.3-2.3-1.3-1.3zm10 .8c-.6 1.4 0 2.6 1.4 2.6.8 0 .6-2.6-.3-3.5-.3-.3-.8.1-1.1.9zm3.3-.5c0 .6-.1 1.4-.2 1.8-.2.5 1.2.9 3 1 1.7.1 3-.3 2.6-.8-.3-.5 0-.9.5-.9.6 0 1.1.4 1.1 1 0 .5.9 1 2 1s2-.7 2-1.5c0-1.2-1-1.5-4.3-1.4-2.4.2-4.9-.1-5.5-.5-.7-.4-1.2-.2-1.2.3zm-80 1.8c0 .7.9 1.3 2 1.3s2-.6 2-1.3c0-.9.3-.8.9.2.5.7 1.4 1 2 .7 2-1.3.1-2.5-3.4-2.4-2.2.1-3.5.6-3.5 1.5zm26-.2c0 1.9 7.6 2.1 8.3.2.4-1 .6-1 .6 0 .1 1.8 4.1 1.6 4.1-.2 0-1.9-6-2.1-7.9-.3-1.1 1-1.3 1-.7 0 .4-.6.3-1.2-.3-1.2-.5 0-1.2.6-1.4 1.2-.4 1-.6 1-.6 0-.1-1.7-2.1-1.5-2.1.3z"></path>
    <path d="M89 36.2c0 1.1.8 1.8 2 1.8 1.1 0 2-.6 2-1.3 0-.9.2-.9.8 0 .4.6 2.5 1.3 4.6 1.4 3.1.3 4 0 4.2-1.4.1-.9-.4-1.7-1.2-1.7-.9 0-1.3.4-1 .8.3.5-.1.9-.9.9s-1.2-.4-1-.7c.3-.4-1.3-.8-3.5-.8-2.4-.1-4 .4-4 1.1 0 .7-.4.6-1-.3-.8-1.3-1-1.2-1 .2zm29 .8c0 1.4.5 1.8 1.8 1.3.9-.4 2-1.1 2.4-1.7.5-.7.8-.7.8.1 0 .7.4 1.3.8 1.3.5 0 .9-.7.9-1.5 0-1-1.1-1.5-3.4-1.5-2.6 0-3.3.4-3.3 2zm138 21.3c0 12.7-.2 14.6-1.8 16-1.6 1.5-4.7 1.7-23 1.7-19.9 0-21.3-.1-23.2-2-1.1-1.1-2-1.6-2-1.1 0 .6 1 1.7 2.2 2.5 1.9 1.3 5.9 1.6 23.5 1.6 27.2 0 25.3 1.4 25.3-18.5 0-8-.2-14.5-.5-14.5s-.5 6.5-.5 14.3zm41 29.2c0 32.5.3 41.5 1.3 41.5.9 0 1.2-9 1.2-41.5s-.3-41.5-1.2-41.5c-1 0-1.3 9-1.3 41.5zM40 48.6c0 1.6.2 1.7 1 .4.6-1 1-1.1 1-.3 0 .7.7 1.3 1.5 1.3s1.5-.5 1.5-1c0-.6-.4-1-.9-1s-1.6-.3-2.5-.6c-1.1-.4-1.6 0-1.6 1.2zm7.3-.9c-2.2.8-1.4 2.3 1.2 2.3 1.4 0 2.5-.4 2.5-.9 0-1.1-2.1-1.9-3.7-1.4zm12.5.1c-6.8.4-5.9 1.7 1.2 1.8 3.3.1 6-.2 6-.6 0-1.2-2.1-1.5-7.2-1.2zm8.7 0c-1.3 1.4-.2 2.2 3 2.2 1.9 0 3.5-.4 3.5-.9 0-1-5.7-2.1-6.5-1.3zm7.5.8c0 .8.9 1.4 2 1.4s2-.4 2-.9-.9-1.1-2-1.4c-1.3-.3-2 0-2 .9zm7.3-.8c-2.8.4-3 2.2-.3 2.2 1.1 0 2-.5 2-1.1 0-.7.4-.8 1.3-.2.6.5 3.6.9 6.4.8 2.9 0 5.3.4 5.3.9 0 .6.5.5 1.2-.2.6-.6.9-1.4.6-1.7-.6-.6-13.2-1.1-16.5-.7zm17.7 1c0 .8 1.1 1.1 3 1 1.7-.1 3-.7 3-1.3 0-.5-1.3-1-3-1-1.8 0-3 .5-3 1.3zm7-.3c0 .8.7 1.5 1.5 1.5s1.5-.4 1.5-.9-.7-1.1-1.5-1.5c-.9-.3-1.5 0-1.5.9zm5.8-.8c-1 .2-1.8 1-1.8 1.8s.7 1.1 2 .8c1.1-.3 2-1.2 2-1.9 0-.8-.1-1.3-.2-1.3-.2.1-1.1.3-2 .6zm3.3.9c0 1.1.3 1.4.6.6.3-.7.2-1.6-.1-1.9-.3-.4-.6.2-.5 1.3zm1.9.1c0 .7 1.5 1.2 4 1.1 2.4 0 4-.5 4-1.2s-1.6-1.2-4-1.1c-2.4 0-4 .5-4 1.2z"></path>
    <path d="M52 49c0 .5.5 1 1 1 .6 0 1-.5 1-1 0-.6-.4-1-1-1-.5 0-1 .4-1 1zm171.6 3.6c-2.2.8-4.8 2.2-5.8 3.1-1.7 1.5-1.7 1.7-.2 3.5 1.6 1.7 1.8 1.7 5.2-.4 4.7-2.9 11.6-2.9 16.6 0 3.4 2 3.9 2.1 5.3.7 1.4-1.4 1.4-1.8-.2-3.5-2.1-2.3-9.8-5-13.9-4.9-1.7 0-4.9.7-7 1.5zm11.4.5c5.3 1.2 9.3 3.6 8.4 5-.4.6-1.5.4-3-.6-4.2-2.7-11.4-3-16.7-.7-2.5 1.1-4.8 1.8-5.1 1.5-1-1 2.5-3.5 6.7-4.9 5.2-1.6 4.4-1.5 9.7-.3zm-195 .2c0 .9 1.1 1.2 3.5.9 1.9-.2 3.5-.8 3.5-1.3s-1.6-.9-3.5-.9c-2.2 0-3.5.5-3.5 1.3zm8-.2c0 .7 1.1.9 2.9.6 1.9-.4 3.1-.2 3.5.6.2.7.5.4.5-.6.1-1.3-.7-1.7-3.4-1.7-1.9 0-3.5.5-3.5 1.1zm9 .2c0 .9 1 1.2 3 .9 1.7-.2 3-.8 3-1.3s-1.3-.9-3-.9c-1.8 0-3 .5-3 1.3zm7-.4c0 .6.9.9 2 .8 1.1-.1 2-.5 2-.9s-.9-.8-2-.8-2 .4-2 .9zm5 .3c0 .4 1.4.8 3 .8 1.7 0 3-.4 3-.9s-1.3-.9-3-.9c-1.6.1-3 .5-3 1zm7-.2c0 .6 1.1 1 2.5 1s2.5-.4 2.5-.8-1.1-.9-2.5-1c-1.4-.1-2.5.3-2.5.8zm6 0c0 .7 1.9 1 4.5.9 2.5-.2 4.5-.6 4.5-1.1 0-.4-2-.8-4.5-.8s-4.5.5-4.5 1zm10 0c0 .5.9 1 2 1s2-.5 2-1c0-.6-.9-1-2-1s-2 .4-2 1zm5 .2c0 .4 1.4.8 3 .8 1.7 0 3-.5 3-1 0-.6-1.3-.9-3-.8-1.6.1-3 .6-3 1zm7-.2c0 .5 1.1 1 2.5 1s2.5-.5 2.5-1c0-.6-1.1-1-2.5-1s-2.5.4-2.5 1zm6 .2c0 .5 2 .8 4.5.8s4.5-.4 4.5-1c0-.5-2-.8-4.5-.7-2.5.1-4.5.5-4.5.9zm94.7.2c-.4 1-.5 2.1-.2 2.4.9.9 1.7-.6 1.3-2.5-.3-1.7-.4-1.7-1.1.1zM40 57.5c0 .6 2 1.2 4.5 1.4 3.1.1 4.5-.2 4.5-1.1 0-.9-1.5-1.3-4.5-1.3-2.6 0-4.5.4-4.5 1zm12.5-.5c-2 .5-2.5.9-1.5 1.3 2.1.8 11 .4 11-.5 0-.4-.6-.9-1.2-.9-4.4-.5-5.6-.4-8.3.1zm10.8.4c.2.5 1.8 1.1 3.5 1.3 2.5.3 3.2 0 3.2-1.3 0-1.4-.2-1.5-1.7-.3-.9.8-1.4.9-1.1.3.4-.6-.3-1-1.8-1-1.3 0-2.3.4-2.1 1zm7.7.2c0 .7 1.7 1.2 4 1.2 2.2 0 4-.3 4-.8 0-.4-1.8-1-4-1.2-2.6-.2-4 .1-4 .8zm9 0c0 .6 1.1 1.1 2.5 1.1s2.5-.5 2.5-1.1c0-.7-1.1-1.2-2.5-1.2s-2.5.5-2.5 1.2zm7.3-.9c-2.6.9-1.2 2 2.7 2.1 3.2.2 4-.2 3.9-1.6 0-.9-.3-1.2-.5-.5-.4.8-1.3.9-2.7.4-1.2-.4-2.8-.6-3.4-.4zm9.5.1c-2.5.5-2.3 2.2.2 2.2 1.1 0 2-.5 2-1.1 0-.8.5-.8 1.5.1 1.5 1.2 4.5.8 4.5-.7 0-.8-5.3-1.2-8.2-.5zm9.2.6c0 1.1 1.2 1.5 4 1.4 2.4 0 4-.5 4-1.3 0-1.3-2.8-1.4-4.8-.1-.6.4-1.2.2-1.2-.3 0-.6-.4-1.1-1-1.1-.5 0-1 .6-1 1.4zm10.3-.7c-.7.3-1.3.8-1.3 1.2 0 .4.6.8 1.3.8.6 0 1.7.2 2.2.3 2.2.5 3.5-.1 3.5-1.6 0-1.3-.3-1.4-1.3-.5-.8.6-1.8.7-2.3.2-.5-.5-1.5-.6-2.1-.4zm6.7.9c0 .9.7 1.4 1.7 1.2 2.4-.4 2.7-2.3.3-2.5-1.2-.1-2 .4-2 1.3zm-80.2 3.2c-4 .5-3.4 2.2.7 2.2 1.9 0 3.5-.4 3.5-.9 0-1.4-1.1-1.7-4.2-1.3zM48 62c0 .5 1.8 1 4 1s4-.5 4-1c0-.6-1.8-1-4-1s-4 .4-4 1zm9 .1c0 .5 2 .9 4.5.9s4.5-.4 4.5-.9-2-.9-4.5-.9-4.5.4-4.5.9zm10 .5c0 1.2.3 1.4 1.3.6.7-.6 1.8-.8 2.5-.3 1.4.8 8.2.2 8.2-.8 0-.4-2.7-.9-6-1-5-.2-6 .1-6 1.5zm13-.5c0 .5 2.5.9 5.5.9s5.5-.4 5.5-.9-2.5-1-5.5-1-5.5.5-5.5 1zm12 0c0 .5 1.6.9 3.5.9s3.5-.4 3.5-.9-1.6-.9-3.5-.9-3.5.4-3.5.9zm120.3 20.6c3.7.2 9.7.2 13.5 0 3.7-.2.6-.3-6.8-.3-7.4 0-10.5.1-6.7.3zm-18.1 1c-3.2.6-1.7 2.3 2.1 2.3 2.3 0 2.8-.3 1.8-.9-1.1-.7-.4-1.1 2.5-1.4l3.9-.4h-4c-2.2 0-5 .2-6.3.4zm42.1 0c2 .2 3.5.8 3.2 1.4-.4.5.5.9 1.9.9s2.7-.4 3-.9c.7-1-4.4-2.2-8.8-1.9-2.8.1-2.7.2.7.5z"></path>
    <path d="M233.5 86l-4 .7 3.7.2c2 0 4-.4 4.3-.9.3-.6.5-.9.3-.9-.2.1-2.1.5-4.3.9zm-31.2.7c1.5.2 3.7.2 5 0 1.2-.2 0-.4-2.8-.4-2.7 0-3.8.2-2.2.4zm11.5 0c1.2.2 3.2.2 4.5 0 1.2-.2.2-.4-2.3-.4s-3.5.2-2.2.4zm-119 22c.6.2 1.8.2 2.5 0 .6-.3.1-.5-1.3-.5-1.4 0-1.9.2-1.2.5zm36 0c.6.2 1.8.2 2.5 0 .6-.3.1-.5-1.3-.5-1.4 0-1.9.2-1.2.5zm8.5 0c.9.2 2.3.2 3 0 .6-.3-.1-.5-1.8-.5-1.6 0-2.2.2-1.2.5zm20.5 0c.7.3 1.6.2 1.9-.1.4-.3-.2-.6-1.3-.5-1.1 0-1.4.3-.6.6zm69 0c.6.2 1.8.2 2.5 0 .6-.3.1-.5-1.3-.5-1.4 0-1.9.2-1.2.5zm-184.3 6.1c-1.3 1.4-.2 2.2 3 2.2 1.9 0 3.5-.4 3.5-.9 0-1-5.7-2.1-6.5-1.3zm47.5.8c0 .8.9 1.4 2 1.4s2-.4 2-.9-.9-1.1-2-1.4c-1.3-.3-2 0-2 .9zm22.5-.7c-.3.5-.1 1.2.5 1.6.5.3 1-.1 1-.9 0-1.8-.6-2.1-1.5-.7zm39.8.5c.5 1.5 7.7 2 7.7.6 0-.7-.6-1-1.4-.7-.8.3-1.7.3-2-.1-1.1-1-4.7-.9-4.3.2zm21.8.2c0 1.1.3 1.4.6.6.3-.7.2-1.6-.1-1.9-.3-.4-.6.2-.5 1.3zm52.9 0c0 .8.9 1.4 2 1.4s2-.4 2-.9-.9-1.1-2-1.4c-1.3-.3-2 0-2 .9zm14.6-.7c-.4.7-.5 1.5-.2 1.8.9.9 1.9-.4 1.4-1.8-.4-1.1-.6-1.1-1.2 0zM52 116c0 .6 2.7 1 6 1s6-.4 6-1-2.7-1-6-1-6 .4-6 1zm13 0c0 .5.7 1 1.5 1s1.5-.5 1.5-1c0-.6-.7-1-1.5-1s-1.5.4-1.5 1zm4-.1c0 1.1 2.6 2.2 3.4 1.4 1.2-1.2.5-2.3-1.4-2.3-1.1 0-2 .4-2 .9zm5 0c0 .4 3.8.8 8.5.8s8.5-.3 8.5-.8c0-.4-3.8-.8-8.5-.8s-8.5.4-8.5.8zm23 0c0 .6 1.8.9 4 .9s4-.4 4-.8c0-.3-1.8-.7-4-.8-2.2-.1-4 .2-4 .7zm9 .1c0 .5 1.6 1 3.5 1s3.5-.5 3.5-1c0-.6-1.6-1-3.5-1s-3.5.4-3.5 1zm11 .1c0 .5 3.8.9 8.5.9 4.8 0 8.5-.4 8.5-1 0-.5-3.6-.9-8.5-.8-4.7 0-8.5.5-8.5.9zm46-.1c0 .9 1.1 1.2 4.5 1.2 5.3 0 7.5-.3 7.5-1.2 0-.6-2.7-1-6-1s-6 .4-6 1zm15 0c0 .5.9 1 2 1s2-.5 2-1c0-.6-.9-1-2-1s-2 .4-2 1zm5-.1c0 .5 2 .8 4.5.8s4.5-.4 4.5-.9c0-.4-2-.8-4.5-.8s-4.5.4-4.5.9zm10 0c0 .6.9.9 2 .8 1.1-.1 2-.5 2-.9s-.9-.8-2-.8-2 .4-2 .9zm5 0c0 .5 3.4.9 7.5.9s7.5-.3 7.5-.8c0-.4-3.4-.8-7.5-.9-4.1-.1-7.5.3-7.5.8zm16 .3c0 .4 1.4.8 3 .8 1.7 0 3-.5 3-1 0-.6-1.3-.9-3-.8-1.6.1-3 .6-3 1zm7-.4c0 .5 1.6.9 3.5 1 1.9.1 3.5-.3 3.5-.8 0-.6-1.6-1-3.5-1s-3.5.4-3.5.8zm13 .2c0 .5 1.1 1 2.5 1s2.5-.5 2.5-1c0-.6-1.1-1-2.5-1s-2.5.4-2.5 1zm6 0c0 .5.5 1 1 1 .6 0 1-.5 1-1 0-.6-.4-1-1-1-.5 0-1 .4-1 1zm10.8-.3c.7.3 1.6.2 1.9-.1.4-.3-.2-.6-1.3-.5-1.1 0-1.4.3-.6.6zM44 132.4c0 .6 1.6 1.2 3.5 1.3 2.2.1 3.5-.3 3.5-1s-1.5-1.3-3.5-1.3c-2-.1-3.5.3-3.5 1zm8 .1c0 .8 1.9 1.2 6 1.2s6-.4 6-1.3-.8-1-2.7-.5c-1.6.4-4.3.4-6 0-2.4-.5-3.3-.3-3.3.6zm13 0c0 .8.7 1.5 1.5 1.5s1.5-.4 1.5-.9-.7-1.1-1.5-1.5c-.9-.3-1.5 0-1.5.9zm4 .1c0 .7.7 1.4 1.5 1.8.8.3 1.5.2 1.5-.2s2.5-.7 5.5-.8c3 0 5.5.4 5.5.9s.6.5 1.3-.1c.6-.6 3.8-.8 7-.6 3.6.3 5.7 0 5.7-.7 0-.5.5-.7 1-.4.6.3 1 .3 1-.2 0-.4-6.8-.8-15-.8-10.6 0-15 .3-15 1.1zm85.7 0c.5 1.4 12.5 1.3 13.5-.1.5-.7.8-.7.8 0s3.3 1.1 8.5 1.2c4.7.1 8.5-.3 8.5-.8s-1.2-.9-2.7-1c-1.6 0-4.9-.1-7.6-.2-2.6-.1-4.7.2-4.7.6 0 .5-.6.5-1.2 0-2.1-1.3-15.6-1-15.1.3zm32.8-.8c-1 1.1-.4 1.8 1.5 1.9 1.1.1 2-.4 2-1.1 0-1.2-2.5-1.8-3.5-.8zm5.1-.1c-1.2 1.2-.5 2.3 1.4 2.3 1.1 0 2-.4 2-.9 0-1.1-2.6-2.2-3.4-1.4zm9.4 1c0 1 .7 1.2 2 .8 1.2-.4 2-.2 2 .5 0 .6.5.8 1 .5 1.9-1.1 1-2.3-2-2.7-2.1-.3-3 0-3 .9zm7.3-.2c0 .6.6 1.2 1.4 1.3 5.1.5 8.8.2 9.1-.7.2-.6.8-.9 1.3-.5.5.3.9.1.9-.5 0-.8-3.9-.8-6-.1-.3.2-.9.1-1.5 0-3.3-.7-5.2-.5-5.2.5zm-12.3.6c0 .5.5.7 1 .4.6-.3 1-.1 1 .5s.5.8 1 .5c1.7-1 1.1-2.5-1-2.5-1.1 0-2 .5-2 1.1zm53.8-.4c.7.3 1.6.2 1.9-.1.4-.3-.2-.6-1.3-.5-1.1 0-1.4.3-.6.6zM44 149c0 .6 1.1 1 2.5 1s2.8 0 3.2.1c.4 0 .9-.4 1.1-.9.1-.5-1.3-.9-3.3-1-1.9-.1-3.5.3-3.5.8zm8 .2c0 .9.7 1 7.3 1.2 2.9.1 4.7-.3 4.7-1s-2.1-1.1-6-1.1c-3.3 0-6 .4-6 .9zm13.2 0c.6 1.8 2.8 2.1 2.8.4 0-.9-.7-1.6-1.6-1.6-.9 0-1.4.5-1.2 1.2zm3.8 0c0 .9.3 1 9.5 1.2 3.9.1 7.8-.2 8.8-.7.9-.4 1.7-.4 1.7.1 0 .4.9.8 2 .8s2-.5 2-1.1c0-.7-4-1.1-12-1.1-6.6.1-12 .4-12 .8zm25 0c0 .7 1.6 1 5.5 1 2.9 0 3.6-.2 3.1-1.1-.7-1.1-8.6-1-8.6.1zm10 0c0 1.5 13.7 1.5 15.2 0 .7-.7-1.3-1-7.1-.9-4.4.1-8.1.5-8.1.9zm36-.2c0 .5.5 1 1 1 .6 0 1-.5 1-1 0-.6-.4-1-1-1-.5 0-1 .4-1 1zm14 .1c0 .9 3.2 1.7 4.8 1.2 2.3-.8 1.2-1.9-1.8-1.9-1.6 0-3 .3-3 .7zm7.4 0c-.6 1.1-.6 1.1 3.4 1.3 1.7.1 3.2-.3 3.2-.8 0-1.3-5.8-1.7-6.6-.5zm7.6.2c0 .7.8 1.3 1.8 1.2 2.6-.2 3-2 .5-2.3-1.5-.2-2.3.2-2.3 1.1zm6 0c0 1.4 6.2 1.5 6.7 0 .2-.5-1.2-1-3.2-1.1-2.2-.1-3.5.3-3.5 1.1zm8-.5c0 .5.9 1.2 2.1 1.5 1.3.3 1.9.1 1.6-.6-.5-1.5-3.7-2.2-3.7-.9zm5.2.3c.5 1.5 9.5 1.8 9.5.3 0-.6-2.2-1.2-5-1.3-3.4-.1-4.8.2-4.5 1zm10.8.2c0 .5.9.7 2 .4 1.1-.3 2-.2 2 .2s1.6.7 3.5.7 3.5-.4 3.5-.8.9-.5 2-.3 2 0 2-.5-3.4-.9-7.5-.7c-4.1.1-7.5.6-7.5 1zm51.6-.1c.3.5 1 .6 1.5.3 1.3-.9 1.1-1.2-.6-1.2-.8 0-1.2.4-.9.9zM.5 162.7c1 4.1 3.3 6.2 6.6 6.1 2.6-.1 2.9-.4 2.9-3.5 0-2 .4-3.2 1-2.8.6.3 1 1.5 1 2.5s.5 2.2 1.1 2.6c1.4.8 5.9-1.5 5.9-3.1 0-1.4 9.3-1.1 9.8.3.1.5-1.8 1-4.4 1-7.1.2-8.1 2.2-1.1 2.2 5.2 0 5.7-.2 6.3-2.5l.6-2.4h26.9c14.9 0 27.4-.3 27.9-.6.6-.4 1 1 1 3.2s.4 3.3.8 2.6c.4-.7 2.1-1.1 3.7-1 2.2.1 3.2-.4 4-2 1.2-2.9 2.8-2.9 4 0 .7 1.4 1.9 2.2 3.5 2.2s2.8-.8 3.5-2.2c1.2-2.8 2.5-3 2.5-.5 0 1 .5 2.3 1.2 3 1.5 1.5 5.8 1.6 5.8.2 0-.6-1.1-1-2.5-1-2 0-2.4-.4-2.1-2.3.5-3.2 5.2-3.2 4.9.1-.3 2.8 1.1 2.8 2.6-.1 1.1-2.1 1.1-2.1.8.8l-.3 3h9.6c5.2 0 10.1-.4 10.9-.9.8-.5 1.2-.5.8 0-.3.5 8.6.9 21.4.9H183v-3.3c0-1.7.5-3.2 1.1-3.2.7 0 1 1.2.7 3-.4 2.9-.3 3 3.7 3s4.1-.1 3.7-3c-.3-1.8 0-3 .7-3 .6 0 1.1 1.6 1.1 3.5s.4 3.5.9 3.5.9-.6.8-1.2c-.2-5.1-1.7-4.8 26.3-4.8 22 0 26 .2 26 1.4 0 2.5 2 3 12.5 3.2 5.5.2 13.5.6 17.7 1 5.7.5 8.2.3 9.3-.6 1.2-1 1.9-1 2.7-.2.7.7 2.7 1.2 4.5 1.2 3 0 3.3-.3 3.3-3 0-1.7.5-3 1-3 .6 0 1-.7 1-1.5 0-1.3-17.3-1.5-150.1-1.5H-.2l.7 2.7zm280.5.3c0 .4-1.1.7-2.4.7-1.6 0-2.3-.4-2-1.2.5-1.3 4.4-.9 4.4.5zm5-.3c0 1.5-.2 1.5-2.4.7-2.2-.9-2-2 .4-2 1.1 0 2 .6 2 1.3zm-270.4 2.9c-2.5 1.8-3.1 1.2-1.6-1.6.9-1.7 1.5-1.9 2.3-1 .9.9.7 1.5-.7 2.6zm121.2-.8c.3 1.8-.2 2.2-2.2 2.2-1.9 0-2.6-.5-2.6-1.8 0-2.4.7-3.1 2.8-2.8.9.2 1.8 1.3 2 2.4zm11.2.3c0 1.4-.7 1.9-2.5 1.9s-2.5-.5-2.5-1.9c0-1.1.6-2.1 1.3-2.4 2-.7 3.7.4 3.7 2.4zm9.8-1.9c1.8 1.8 1.4 3.8-.7 3.8-2.3 0-3.5-1.5-2.7-3.5.7-1.8 1.8-1.9 3.4-.3zm12.7-.4c1.1.4 2.1 1.4 2.3 2.3.2 1.4-.8 1.7-5.8 1.7-5.4 0-6-.2-6-2.1 0-1.9.1-1.9 1.8-.4 2.3 2.1 6.2 2.2 6.2.2 0-.8-.5-1.5-1.1-1.5-.5 0-.8.4-.5.8.2.4-.4.8-1.5.8-1 0-1.9-.6-1.9-1.3 0-1.4 3.1-1.6 6.5-.5zm9.5 1.7c0 2.5-1.4 3.3-2.5 1.5-.4-.6-1.1-.8-1.6-.5-.5.4-.9-.1-.9-1s.4-1.4.9-1c.5.3 1.2.1 1.6-.5 1.1-1.8 2.5-1 2.5 1.5zm10.5.1c0 1-.8 2-1.8 2.2-2.2.4-3.5-2.7-1.6-3.9 2-1.2 3.4-.5 3.4 1.7zM7 164.9c0 1.4-.5 1.8-2 1.4-2.6-.7-2.6-3.3 0-3.3 1.3 0 2 .7 2 1.9zm86-.6c0 .8-.3 1.7-.7 2-.9.9-3.4-1.3-2.7-2.4.8-1.4 3.4-1.1 3.4.4zm11 .2c0 .8-.9 1.5-2 1.5s-2-.7-2-1.5.9-1.5 2-1.5 2 .7 2 1.5zm22 .4c0 2.4-4.3 2.3-4.8-.2-.3-1.3.3-1.7 2.2-1.7 1.9 0 2.6.5 2.6 1.9zm25.7.1c.1 1.1-.2 1.8-.8 1.5-1.1-.7-1.2-3.5-.1-3.5.4 0 .8.9.9 2zm100.3-.1c0 .4-.7.8-1.5.8-1.6 0-2-.9-.9-2 .8-.8 2.4.1 2.4 1.2zm6 .2c0 .5-.9.9-2 .9-1.9 0-2.6-1.1-1.4-2.3.8-.8 3.4.3 3.4 1.4zm4-1.1c.8.5 1.1 1.2.8 1.6-1 .9-3.8-.3-3.8-1.6 0-1.2 1-1.3 3 0zm6 .5c0 .8-.7 1.5-1.5 1.5-2.6 0-1.8-2 1.3-2.9.1-.1.2.6.2 1.4zm5 0c0 .8-.6 1.5-1.4 1.5-1.7 0-2.8-1.4-1.9-2.4 1.2-1.2 3.3-.6 3.3.9zm22 .6c0 1.3.4 1.8 1.3 1.3.6-.4.8-.3.4.1-1.3 1.5-3.6 1.4-3-.1.4-1 0-1.2-1.1-.8-1.1.4-1.6.1-1.6-1 0-.9.8-1.6 2-1.6 1.4 0 2 .7 2 2.1zm-165.6 1.5c.3.8.2 1.2-.4.9-.6-.3-1-1-1-1.6 0-1.4.7-1.1 1.4.7zm157.6-.2c0 1.2-1.2 1.5-5.5 1.4-7.7-.3-8.1-2.5-.4-2.7 4.6-.1 5.9.2 5.9 1.3z"></path>
    <path d="M112.5 165c.3.5.8 1 1.1 1 .2 0 .4-.5.4-1 0-.6-.5-1-1.1-1-.5 0-.7.4-.4 1z"></path>
  </symbol>
  <symbol xmlns="http://www.w3.org/2000/svg" viewBox="0 0 1440 320" id="wave (1)">
    <path fill="#f3f4f5" d="M0 320h48c48 0 144 0 240-37.3 96-37.7 192-111.7 288-144 96-31.7 192-21.7 288 16 96 37.3 192 101.3 288 128 96 26.3 192 16.3 240 10.6l48-5.3v32H0z"></path>
  </symbol>
</svg>