<?xml version="1.0" standalone="no"?>
<!DOCTYPE svg PUBLIC "-//W3C//DTD SVG 20010904//EN"
 "http://www.w3.org/TR/2001/REC-SVG-20010904/DTD/svg10.dtd">
<svg version="1.0" xmlns="http://www.w3.org/2000/svg"
 width="300.000000pt" height="169.000000pt" viewBox="0 0 300.000000 169.000000"
 preserveAspectRatio="xMidYMid meet">
<metadata>
Created by potrace 1.10, written by Peter Selinger 2001-2011
</metadata>
<g transform="translate(0.000000,169.000000) scale(0.100000,-0.100000)"
fill="#000000" stroke="none">
<path d="M490 1655 l0 -35 1258 0 c805 0 1251 4 1241 10 -9 5 -20 21 -23 35
-7 26 -20 32 -31 15 -3 -5 1 -10 9 -10 19 0 22 -30 4 -31 -7 0 -26 -3 -41 -5
-19 -3 -27 -1 -26 8 8 50 -48 67 -57 18 -6 -25 -11 -30 -36 -30 -18 0 -27 4
-23 10 4 6 1 17 -5 26 -10 11 -16 12 -27 3 -8 -7 -12 -18 -9 -24 3 -10 -229
-13 -1074 -14 l-1079 -1 -12 23 c-14 27 -28 37 -51 37 -14 0 -18 -8 -18 -35z
m55 6 c7 -12 -12 -24 -25 -16 -11 7 -4 25 10 25 5 0 11 -4 15 -9z m2315 -6 c0
-8 -7 -15 -15 -15 -16 0 -20 12 -8 23 11 12 23 8 23 -8z m-103 -1 c-3 -3 -12
-4 -19 -1 -8 3 -5 6 6 6 11 1 17 -2 13 -5z"/>
<path d="M0 1662 c0 -10 5 -23 12 -30 9 -9 9 -15 0 -24 -7 -7 -12 -27 -12 -45
l0 -33 1041 0 c733 0 1038 -3 1034 -11 -4 -6 -8 -66 -8 -135 l-2 -124 248 0
249 0 -4 135 -3 135 223 0 222 0 -6 28 c-9 38 -19 46 -49 38 -18 -5 -25 -12
-21 -21 3 -8 1 -17 -4 -20 -4 -3 -10 1 -13 7 -3 10 -7 10 -21 -1 -18 -15 -29
-10 -32 14 -1 8 4 15 12 15 9 0 12 -4 9 -10 -3 -5 -2 -10 4 -10 12 0 25 20 14
21 -45 7 -194 5 -199 -3 -3 -5 -11 -4 -19 2 -19 16 -55 3 -55 -19 0 -18 -9
-20 -140 -24 -64 -2 -65 -2 -71 28 l-7 30 -1 -31 -1 -31 -722 4 c-397 2 -725
6 -730 9 -5 3 -66 5 -136 4 -168 -3 -172 -2 -172 14 0 35 -59 27 -61 -8 -1
-19 -2 -18 -8 4 -10 37 -47 35 -44 -2 1 -16 -2 -28 -8 -28 -5 0 -10 15 -10 33
-2 30 -2 30 -6 5 l-4 -28 -105 0 c-95 0 -104 2 -104 19 0 29 -28 47 -51 33
-15 -10 -23 -9 -40 0 -17 11 -22 10 -34 -6 -11 -14 -18 -16 -28 -8 -7 6 -22 9
-33 6 -12 -3 -23 2 -30 13 -10 17 -4 18 109 16 110 -2 122 0 134 18 18 24 88
26 114 3 22 -20 49 -12 49 16 0 20 -5 20 -240 20 -224 0 -240 -1 -240 -18z
m50 -6 c0 -8 -4 -17 -9 -21 -12 -7 -24 12 -16 25 9 15 25 12 25 -4z m93 2 c26
1 47 -2 47 -8 0 -6 -26 -10 -60 -10 -48 0 -60 3 -60 16 0 10 4 12 13 7 6 -4
33 -6 60 -5z m324 -5 c0 -7 -6 -13 -14 -13 -7 0 -13 6 -13 13 0 8 6 14 13 14
8 0 14 -6 14 -14z m-157 -3 c0 -5 -3 -10 -7 -11 -66 -5 -103 -2 -103 9 0 8 18
12 55 12 30 0 55 -4 55 -10z m-236 -62 c8 -14 7 -22 -6 -35 -10 -9 -21 -13
-25 -9 -4 4 -1 11 7 16 11 7 10 9 -7 7 -12 0 -19 -5 -17 -9 3 -4 0 -8 -5 -8
-15 0 -14 33 1 48 16 16 38 12 52 -10z m60 -7 c3 -5 -2 -15 -11 -22 -12 -10
-14 -10 -9 -1 4 7 2 12 -4 12 -6 0 -8 5 -5 10 8 12 22 13 29 1z m76 0 c0 -13
-26 -32 -33 -24 -14 13 -6 33 13 33 11 0 20 -4 20 -9z m63 3 c9 -10 -4 -34
-19 -34 -8 0 -14 6 -14 13 0 22 19 35 33 21z m285 -11 c-4 -22 -22 -20 -26 1
-2 10 3 16 13 16 10 0 15 -7 13 -17z m66 2 c4 -10 -1 -15 -14 -15 -13 0 -18 5
-14 15 4 8 10 15 14 15 4 0 10 -7 14 -15z m2050 -1 c4 -9 4 -19 1 -22 -3 -3
-5 0 -5 6 0 6 -7 9 -15 6 -9 -4 -15 0 -15 10 0 21 26 21 34 0z m74 -1 c-2 -10
-10 -18 -18 -18 -8 0 -16 8 -18 18 -2 12 3 17 18 17 15 0 20 -5 18 -17z m65 2
c1 -5 -6 -11 -15 -13 -11 -2 -18 3 -18 13 0 17 30 18 33 0z m157 0 c0 -8 -7
-15 -15 -15 -8 0 -15 7 -15 15 0 8 7 15 15 15 8 0 15 -7 15 -15z m-434 -150
c1 -148 16 -135 -148 -135 l-141 0 27 21 c33 26 58 72 54 102 -6 39 -43 78
-82 84 -67 11 -126 -35 -126 -99 0 -33 39 -88 70 -101 8 -3 -11 -6 -42 -6
l-57 -1 -3 116 c-2 64 -1 118 1 120 3 2 104 3 225 2 l220 -3 2 -100z m-262 34
c20 -16 26 -29 26 -59 0 -30 -6 -43 -26 -59 -37 -29 -70 -26 -105 8 -36 36
-37 60 -3 100 31 37 69 41 108 10z"/>
<path d="M2358 1463 c-24 -27 -20 -100 5 -118 13 -9 25 -11 31 -5 5 5 16 6 26
0 27 -15 58 20 55 64 -3 46 -22 69 -52 63 -13 -2 -26 0 -29 4 -8 14 -19 11
-36 -8z m40 -25 c8 -8 15 -8 24 0 8 6 19 7 26 3 10 -6 9 -11 -3 -21 -14 -12
-14 -15 1 -31 16 -17 16 -19 -1 -25 -10 -4 -20 -1 -25 6 -7 11 -11 11 -24 1
-23 -19 -41 -3 -21 19 15 17 15 19 -1 28 -9 5 -14 14 -10 21 9 14 19 14 34 -1z"/>
<path d="M2198 1439 c-28 -16 -23 -67 7 -81 46 -21 86 40 49 76 -18 18 -32 20
-56 5z m42 -45 c0 -8 -6 -14 -14 -14 -18 0 -29 27 -13 33 16 6 27 -1 27 -19z"/>
<path d="M2920 1649 c0 -5 5 -7 10 -4 6 3 10 8 10 11 0 2 -4 4 -10 4 -5 0 -10
-5 -10 -11z"/>
<path d="M780 1590 l-45 -6 38 -5 c20 -3 42 0 47 5 6 6 10 6 10 0 0 -5 22 -8
51 -7 31 2 58 -2 67 -9 13 -11 14 -10 10 2 -5 17 -105 28 -178 20z"/>
<path d="M2308 1593 c25 -5 28 -13 11 -30 -9 -9 -7 -12 10 -10 11 1 21 7 21
15 0 7 5 10 12 6 7 -5 8 -3 3 6 -6 10 -4 12 9 7 9 -4 15 -3 12 2 -3 4 -27 8
-53 8 -26 -1 -38 -2 -25 -4z"/>
<path d="M668 1583 c12 -2 30 -2 40 0 9 3 -1 5 -23 4 -22 0 -30 -2 -17 -4z"/>
<path d="M2216 1581 c-9 -14 16 -28 51 -28 28 0 30 2 20 19 -12 19 -61 25 -71
9z m47 -8 c-7 -2 -21 -2 -30 0 -10 3 -4 5 12 5 17 0 24 -2 18 -5z"/>
<path d="M403 1490 c4 -18 7 -37 7 -42 0 -22 25 1 31 28 l6 29 8 -32 c9 -37
21 -43 29 -13 3 11 9 29 12 40 3 11 1 20 -5 20 -6 0 -11 -12 -12 -27 l-1 -28
-11 28 c-6 15 -14 27 -18 27 -4 0 -12 -12 -17 -27 -9 -25 -11 -25 -11 -6 -1
12 -6 25 -13 29 -8 5 -9 -2 -5 -26z"/>
<path d="M512 1480 c0 -25 2 -36 5 -25 8 34 23 41 23 12 0 -15 5 -27 10 -27 6
0 10 14 10 30 0 23 -5 30 -19 30 -11 0 -22 6 -24 13 -3 6 -5 -8 -5 -33z"/>
<path d="M574 1485 c-4 -9 0 -23 8 -31 20 -20 50 -7 46 20 -4 26 -45 35 -54
11z m38 -10 c0 -5 -5 -11 -11 -13 -6 -2 -11 4 -11 13 0 9 5 15 11 13 6 -2 11
-8 11 -13z"/>
<path d="M644 1485 c-8 -21 2 -45 19 -45 20 0 40 27 33 45 -7 19 -45 20 -52 0z
m36 -10 c0 -8 -4 -15 -9 -15 -13 0 -22 16 -14 24 11 11 23 6 23 -9z"/>
<path d="M710 1460 c0 -22 4 -40 10 -40 5 0 7 6 4 14 -3 9 1 13 13 13 13 -2
19 6 21 26 3 23 0 27 -22 27 -24 0 -26 -4 -26 -40z m40 16 c0 -8 -4 -17 -9
-21 -12 -7 -24 12 -16 25 9 15 25 12 25 -4z"/>
<path d="M775 1489 c-4 -6 2 -13 14 -16 11 -3 18 -9 16 -14 -3 -4 -13 -5 -22
-2 -11 4 -14 3 -9 -5 10 -17 31 -15 46 4 11 13 10 16 -10 21 -22 6 -23 7 -4
14 18 7 18 8 -3 8 -12 1 -25 -4 -28 -10z"/>
<path d="M1961 1469 c-35 -10 -68 -22 -73 -27 -6 -6 1 -49 17 -109 l27 -100
57 16 c44 13 57 22 59 39 3 18 -2 22 -22 22 -29 0 -66 35 -66 62 0 28 47 71
71 65 16 -4 19 0 19 24 0 33 -2 33 -89 8z m9 -24 c0 -4 -7 -19 -15 -34 -22
-43 -3 -99 37 -113 l30 -11 -33 -14 c-18 -7 -36 -10 -41 -5 -4 4 -16 41 -27
82 l-19 75 26 12 c30 14 42 16 42 8z"/>
<path d="M870 1449 c0 -5 5 -7 10 -4 6 3 10 8 10 11 0 2 -4 4 -10 4 -5 0 -10
-5 -10 -11z"/>
<path d="M900 1450 c0 -5 5 -10 10 -10 6 0 10 5 10 10 0 6 -4 10 -10 10 -5 0
-10 -4 -10 -10z"/>
<path d="M2001 1396 c-20 -24 -9 -51 22 -54 27 -3 28 -1 25 30 -3 36 -27 48
-47 24z m39 -26 c0 -5 -7 -10 -15 -10 -8 0 -15 5 -15 10 0 6 7 10 15 10 8 0
15 -4 15 -10z"/>
<path d="M397 1331 c4 -17 43 -27 43 -11 0 11 -16 25 -32 28 -12 2 -15 -3 -11
-17z"/>
<path d="M447 1329 c6 -22 23 -26 23 -5 0 8 -6 16 -14 19 -10 4 -12 0 -9 -14z"/>
<path d="M580 1326 c0 -17 2 -18 10 -6 7 11 10 12 10 2 0 -18 51 -12 68 8 10
13 11 13 6 -2 -3 -10 -1 -18 5 -18 6 0 11 5 11 12 0 6 7 3 15 -8 12 -16 16
-17 24 -4 11 17 4 33 -12 27 -7 -2 -20 0 -29 4 -9 5 -19 5 -22 0 -3 -4 -24 -5
-46 -1 -36 7 -40 5 -40 -14z"/>
<path d="M1157 1344 c-3 -4 -32 -7 -64 -8 -81 -2 -73 -21 10 -23 60 -2 67 0
67 18 0 20 -3 23 -13 13z"/>
<path d="M1257 1336 c-6 -14 0 -26 14 -26 8 0 6 26 -3 35 -3 3 -8 -1 -11 -9z"/>
<path d="M1290 1341 c0 -6 -1 -14 -2 -18 -2 -5 12 -9 30 -10 17 -1 30 3 26 8
-3 5 0 9 5 9 6 0 11 -4 11 -10 0 -5 9 -10 20 -10 11 0 20 7 20 15 0 12 -10 15
-43 14 -24 -2 -49 1 -55 5 -7 4 -12 2 -12 -3z"/>
<path d="M490 1323 c0 -7 9 -13 20 -13 11 0 20 6 20 13 0 9 3 8 9 -2 5 -7 14
-10 20 -7 20 13 1 25 -34 24 -22 -1 -35 -6 -35 -15z"/>
<path d="M750 1325 c0 -19 76 -21 83 -2 4 10 6 10 6 0 1 -18 41 -16 41 2 0 19
-60 21 -79 3 -11 -10 -13 -10 -7 0 4 6 3 12 -3 12 -5 0 -12 -6 -14 -12 -4 -10
-6 -10 -6 0 -1 17 -21 15 -21 -3z"/>
<path d="M890 1328 c0 -11 8 -18 20 -18 11 0 20 6 20 13 0 9 2 9 8 0 4 -6 25
-13 46 -14 31 -3 40 0 42 14 1 9 -4 17 -12 17 -9 0 -13 -4 -10 -8 3 -5 -1 -9
-9 -9 -8 0 -12 4 -10 7 3 4 -13 8 -35 8 -24 1 -40 -4 -40 -11 0 -7 -4 -6 -10
3 -8 13 -10 12 -10 -2z"/>
<path d="M1180 1320 c0 -14 5 -18 18 -13 9 4 20 11 24 17 5 7 8 7 8 -1 0 -7 4
-13 8 -13 5 0 9 7 9 15 0 10 -11 15 -34 15 -26 0 -33 -4 -33 -20z"/>
<path d="M2560 1107 c0 -127 -2 -146 -18 -160 -16 -15 -47 -17 -230 -17 -199
0 -213 1 -232 20 -11 11 -20 16 -20 11 0 -6 10 -17 22 -25 19 -13 59 -16 235
-16 272 0 253 -14 253 185 0 80 -2 145 -5 145 -3 0 -5 -65 -5 -143z"/>
<path d="M2970 815 c0 -325 3 -415 13 -415 9 0 12 90 12 415 0 325 -3 415 -12
415 -10 0 -13 -90 -13 -415z"/>
<path d="M400 1204 c0 -16 2 -17 10 -4 6 10 10 11 10 3 0 -7 7 -13 15 -13 8 0
15 5 15 10 0 6 -4 10 -9 10 -5 0 -16 3 -25 6 -11 4 -16 0 -16 -12z"/>
<path d="M473 1213 c-22 -8 -14 -23 12 -23 14 0 25 4 25 9 0 11 -21 19 -37 14z"/>
<path d="M598 1212 c-68 -4 -59 -17 12 -18 33 -1 60 2 60 6 0 12 -21 15 -72
12z"/>
<path d="M685 1212 c-13 -14 -2 -22 30 -22 19 0 35 4 35 9 0 10 -57 21 -65 13z"/>
<path d="M760 1204 c0 -8 9 -14 20 -14 11 0 20 4 20 9 0 5 -9 11 -20 14 -13 3
-20 0 -20 -9z"/>
<path d="M833 1212 c-28 -4 -30 -22 -3 -22 11 0 20 5 20 11 0 7 4 8 13 2 6 -5
36 -9 64 -8 29 0 53 -4 53 -9 0 -6 5 -5 12 2 6 6 9 14 6 17 -6 6 -132 11 -165
7z"/>
<path d="M1010 1202 c0 -8 11 -11 30 -10 17 1 30 7 30 13 0 5 -13 10 -30 10
-18 0 -30 -5 -30 -13z"/>
<path d="M1080 1205 c0 -8 7 -15 15 -15 8 0 15 4 15 9 0 5 -7 11 -15 15 -9 3
-15 0 -15 -9z"/>
<path d="M1138 1213 c-10 -2 -18 -10 -18 -18 0 -8 7 -11 20 -8 11 3 20 12 20
19 0 8 -1 13 -2 13 -2 -1 -11 -3 -20 -6z"/>
<path d="M1171 1204 c0 -11 3 -14 6 -6 3 7 2 16 -1 19 -3 4 -6 -2 -5 -13z"/>
<path d="M1190 1203 c0 -7 15 -12 40 -11 24 0 40 5 40 12 0 7 -16 12 -40 11
-24 0 -40 -5 -40 -12z"/>
<path d="M520 1200 c0 -5 5 -10 10 -10 6 0 10 5 10 10 0 6 -4 10 -10 10 -5 0
-10 -4 -10 -10z"/>
<path d="M2236 1164 c-22 -8 -48 -22 -58 -31 -17 -15 -17 -17 -2 -35 16 -17
18 -17 52 4 47 29 116 29 166 0 34 -20 39 -21 53 -7 14 14 14 18 -2 35 -21 23
-98 50 -139 49 -17 0 -49 -7 -70 -15z m114 -5 c53 -12 93 -36 84 -50 -4 -6
-15 -4 -30 6 -42 27 -114 30 -167 7 -25 -11 -48 -18 -51 -15 -10 10 25 35 67
49 52 16 44 15 97 3z"/>
<path d="M400 1157 c0 -9 11 -12 35 -9 19 2 35 8 35 13 0 5 -16 9 -35 9 -22 0
-35 -5 -35 -13z"/>
<path d="M480 1159 c0 -7 11 -9 29 -6 19 4 31 2 35 -6 2 -7 5 -4 5 6 1 13 -7
17 -34 17 -19 0 -35 -5 -35 -11z"/>
<path d="M570 1157 c0 -9 10 -12 30 -9 17 2 30 8 30 13 0 5 -13 9 -30 9 -18 0
-30 -5 -30 -13z"/>
<path d="M640 1161 c0 -6 9 -9 20 -8 11 1 20 5 20 9 0 4 -9 8 -20 8 -11 0 -20
-4 -20 -9z"/>
<path d="M690 1158 c0 -4 14 -8 30 -8 17 0 30 4 30 9 0 5 -13 9 -30 9 -16 -1
-30 -5 -30 -10z"/>
<path d="M760 1160 c0 -6 11 -10 25 -10 14 0 25 4 25 8 0 4 -11 9 -25 10 -14
1 -25 -3 -25 -8z"/>
<path d="M820 1160 c0 -7 19 -10 45 -9 25 2 45 6 45 11 0 4 -20 8 -45 8 -25 0
-45 -5 -45 -10z"/>
<path d="M920 1160 c0 -5 9 -10 20 -10 11 0 20 5 20 10 0 6 -9 10 -20 10 -11
0 -20 -4 -20 -10z"/>
<path d="M970 1158 c0 -4 14 -8 30 -8 17 0 30 5 30 10 0 6 -13 9 -30 8 -16 -1
-30 -6 -30 -10z"/>
<path d="M1040 1160 c0 -5 11 -10 25 -10 14 0 25 5 25 10 0 6 -11 10 -25 10
-14 0 -25 -4 -25 -10z"/>
<path d="M1100 1158 c0 -5 20 -8 45 -8 25 0 45 4 45 10 0 5 -20 8 -45 7 -25
-1 -45 -5 -45 -9z"/>
<path d="M2047 1156 c-4 -10 -5 -21 -2 -24 9 -9 17 6 13 25 -3 17 -4 17 -11
-1z"/>
<path d="M400 1115 c0 -6 20 -12 45 -14 31 -1 45 2 45 11 0 9 -15 13 -45 13
-26 0 -45 -4 -45 -10z"/>
<path d="M525 1120 c-20 -5 -25 -9 -15 -13 21 -8 110 -4 110 5 0 4 -6 9 -12 9
-44 5 -56 4 -83 -1z"/>
<path d="M633 1116 c2 -5 18 -11 35 -13 25 -3 32 0 32 13 0 14 -2 15 -17 3 -9
-8 -14 -9 -11 -3 4 6 -3 10 -18 10 -13 0 -23 -4 -21 -10z"/>
<path d="M710 1114 c0 -7 17 -12 40 -12 22 0 40 3 40 8 0 4 -18 10 -40 12 -26
2 -40 -1 -40 -8z"/>
<path d="M800 1114 c0 -6 11 -11 25 -11 14 0 25 5 25 11 0 7 -11 12 -25 12
-14 0 -25 -5 -25 -12z"/>
<path d="M873 1123 c-26 -9 -12 -20 27 -21 32 -2 40 2 39 16 0 9 -3 12 -5 5
-4 -8 -13 -9 -27 -4 -12 4 -28 6 -34 4z"/>
<path d="M968 1122 c-25 -5 -23 -22 2 -22 11 0 20 5 20 11 0 8 5 8 15 -1 15
-12 45 -8 45 7 0 8 -53 12 -82 5z"/>
<path d="M1060 1116 c0 -11 12 -15 40 -14 24 0 40 5 40 13 0 13 -28 14 -48 1
-6 -4 -12 -2 -12 3 0 6 -4 11 -10 11 -5 0 -10 -6 -10 -14z"/>
<path d="M1163 1123 c-7 -3 -13 -8 -13 -12 0 -4 6 -8 13 -8 6 0 17 -2 22 -3
22 -5 35 1 35 16 0 13 -3 14 -13 5 -8 -6 -18 -7 -23 -2 -5 5 -15 6 -21 4z"/>
<path d="M1230 1114 c0 -9 7 -14 17 -12 24 4 27 23 3 25 -12 1 -20 -4 -20 -13z"/>
<path d="M428 1082 c-40 -5 -34 -22 7 -22 19 0 35 4 35 9 0 14 -11 17 -42 13z"/>
<path d="M480 1070 c0 -5 18 -10 40 -10 22 0 40 5 40 10 0 6 -18 10 -40 10
-22 0 -40 -4 -40 -10z"/>
<path d="M570 1069 c0 -5 20 -9 45 -9 25 0 45 4 45 9 0 5 -20 9 -45 9 -25 0
-45 -4 -45 -9z"/>
<path d="M670 1064 c0 -12 3 -14 13 -6 7 6 18 8 25 3 14 -8 82 -2 82 8 0 4
-27 9 -60 10 -50 2 -60 -1 -60 -15z"/>
<path d="M800 1069 c0 -5 25 -9 55 -9 30 0 55 4 55 9 0 5 -25 10 -55 10 -30 0
-55 -5 -55 -10z"/>
<path d="M920 1069 c0 -5 16 -9 35 -9 19 0 35 4 35 9 0 5 -16 9 -35 9 -19 0
-35 -4 -35 -9z"/>
<path d="M2123 863 c37 -2 97 -2 135 0 37 2 6 3 -68 3 -74 0 -105 -1 -67 -3z"/>
<path d="M1942 853 c-32 -6 -17 -23 21 -23 23 0 28 3 18 9 -11 7 -4 11 25 14
l39 4 -40 0 c-22 0 -50 -2 -63 -4z"/>
<path d="M2363 853 c20 -2 35 -8 32 -14 -4 -5 5 -9 19 -9 14 0 27 4 30 9 7 10
-44 22 -88 19 -28 -1 -27 -2 7 -5z"/>
<path d="M2335 830 l-40 -7 37 -2 c20 0 40 4 43 9 3 6 5 9 3 9 -2 -1 -21 -5
-43 -9z"/>
<path d="M2023 823 c15 -2 37 -2 50 0 12 2 0 4 -28 4 -27 0 -38 -2 -22 -4z"/>
<path d="M2138 823 c12 -2 32 -2 45 0 12 2 2 4 -23 4 -25 0 -35 -2 -22 -4z"/>
<path d="M948 603 c6 -2 18 -2 25 0 6 3 1 5 -13 5 -14 0 -19 -2 -12 -5z"/>
<path d="M1308 603 c6 -2 18 -2 25 0 6 3 1 5 -13 5 -14 0 -19 -2 -12 -5z"/>
<path d="M1393 603 c9 -2 23 -2 30 0 6 3 -1 5 -18 5 -16 0 -22 -2 -12 -5z"/>
<path d="M1598 603 c7 -3 16 -2 19 1 4 3 -2 6 -13 5 -11 0 -14 -3 -6 -6z"/>
<path d="M2288 603 c6 -2 18 -2 25 0 6 3 1 5 -13 5 -14 0 -19 -2 -12 -5z"/>
<path d="M445 542 c-13 -14 -2 -22 30 -22 19 0 35 4 35 9 0 10 -57 21 -65 13z"/>
<path d="M920 534 c0 -8 9 -14 20 -14 11 0 20 4 20 9 0 5 -9 11 -20 14 -13 3
-20 0 -20 -9z"/>
<path d="M1145 541 c-3 -5 -1 -12 5 -16 5 -3 10 1 10 9 0 18 -6 21 -15 7z"/>
<path d="M1543 536 c5 -15 77 -20 77 -6 0 7 -6 10 -14 7 -8 -3 -17 -3 -20 1
-11 10 -47 9 -43 -2z"/>
<path d="M1761 534 c0 -11 3 -14 6 -6 3 7 2 16 -1 19 -3 4 -6 -2 -5 -13z"/>
<path d="M2290 534 c0 -8 9 -14 20 -14 11 0 20 4 20 9 0 5 -9 11 -20 14 -13 3
-20 0 -20 -9z"/>
<path d="M2436 541 c-4 -7 -5 -15 -2 -18 9 -9 19 4 14 18 -4 11 -6 11 -12 0z"/>
<path d="M520 530 c0 -6 27 -10 60 -10 33 0 60 4 60 10 0 6 -27 10 -60 10 -33
0 -60 -4 -60 -10z"/>
<path d="M650 530 c0 -5 7 -10 15 -10 8 0 15 5 15 10 0 6 -7 10 -15 10 -8 0
-15 -4 -15 -10z"/>
<path d="M690 531 c0 -11 26 -22 34 -14 12 12 5 23 -14 23 -11 0 -20 -4 -20
-9z"/>
<path d="M740 531 c0 -4 38 -8 85 -8 47 0 85 3 85 8 0 4 -38 8 -85 8 -47 0
-85 -4 -85 -8z"/>
<path d="M970 531 c0 -6 18 -9 40 -9 22 0 40 4 40 8 0 3 -18 7 -40 8 -22 1
-40 -2 -40 -7z"/>
<path d="M1060 530 c0 -5 16 -10 35 -10 19 0 35 5 35 10 0 6 -16 10 -35 10
-19 0 -35 -4 -35 -10z"/>
<path d="M1170 529 c0 -5 38 -9 85 -9 48 0 85 4 85 10 0 5 -36 9 -85 8 -47 0
-85 -5 -85 -9z"/>
<path d="M1630 530 c0 -9 11 -12 45 -12 53 0 75 3 75 12 0 6 -27 10 -60 10
-33 0 -60 -4 -60 -10z"/>
<path d="M1780 530 c0 -5 9 -10 20 -10 11 0 20 5 20 10 0 6 -9 10 -20 10 -11
0 -20 -4 -20 -10z"/>
<path d="M1830 531 c0 -5 20 -8 45 -8 25 0 45 4 45 9 0 4 -20 8 -45 8 -25 0
-45 -4 -45 -9z"/>
<path d="M1930 531 c0 -6 9 -9 20 -8 11 1 20 5 20 9 0 4 -9 8 -20 8 -11 0 -20
-4 -20 -9z"/>
<path d="M1980 531 c0 -5 34 -9 75 -9 41 0 75 3 75 8 0 4 -34 8 -75 9 -41 1
-75 -3 -75 -8z"/>
<path d="M2140 528 c0 -4 14 -8 30 -8 17 0 30 5 30 10 0 6 -13 9 -30 8 -16 -1
-30 -6 -30 -10z"/>
<path d="M2210 532 c0 -5 16 -9 35 -10 19 -1 35 3 35 8 0 6 -16 10 -35 10 -19
0 -35 -4 -35 -8z"/>
<path d="M2340 530 c0 -5 11 -10 25 -10 14 0 25 5 25 10 0 6 -11 10 -25 10
-14 0 -25 -4 -25 -10z"/>
<path d="M2400 530 c0 -5 5 -10 10 -10 6 0 10 5 10 10 0 6 -4 10 -10 10 -5 0
-10 -4 -10 -10z"/>
<path d="M2508 533 c7 -3 16 -2 19 1 4 3 -2 6 -13 5 -11 0 -14 -3 -6 -6z"/>
<path d="M440 366 c0 -6 16 -12 35 -13 22 -1 35 3 35 10 0 7 -15 13 -35 13
-20 1 -35 -3 -35 -10z"/>
<path d="M520 365 c0 -8 19 -12 60 -12 41 0 60 4 60 13 0 9 -8 10 -27 5 -16
-4 -43 -4 -60 0 -24 5 -33 3 -33 -6z"/>
<path d="M650 365 c0 -8 7 -15 15 -15 8 0 15 4 15 9 0 5 -7 11 -15 15 -9 3
-15 0 -15 -9z"/>
<path d="M690 364 c0 -7 7 -14 15 -18 8 -3 15 -2 15 2 0 4 25 7 55 8 30 0 55
-4 55 -9 0 -5 6 -5 13 1 6 6 38 8 70 6 36 -3 57 0 57 7 0 5 5 7 10 4 6 -3 10
-3 10 2 0 4 -68 8 -150 8 -106 0 -150 -3 -150 -11z"/>
<path d="M1547 364 c5 -14 125 -13 135 1 5 7 8 7 8 0 0 -7 33 -11 85 -12 47
-1 85 3 85 8 0 5 -12 9 -27 10 -16 0 -49 1 -76 2 -26 1 -47 -2 -47 -6 0 -5 -6
-5 -12 0 -21 13 -156 10 -151 -3z"/>
<path d="M1875 372 c-10 -11 -4 -18 15 -19 11 -1 20 4 20 11 0 12 -25 18 -35
8z"/>
<path d="M1926 373 c-12 -12 -5 -23 14 -23 11 0 20 4 20 9 0 11 -26 22 -34 14z"/>
<path d="M2020 363 c0 -10 7 -12 20 -8 12 4 20 2 20 -5 0 -6 5 -8 10 -5 19 11
10 23 -20 27 -21 3 -30 0 -30 -9z"/>
<path d="M2093 365 c0 -6 6 -12 14 -13 51 -5 88 -2 91 7 2 6 8 9 13 5 5 -3 9
-1 9 5 0 8 -39 8 -60 1 -3 -2 -9 -1 -15 0 -33 7 -52 5 -52 -5z"/>
<path d="M1970 359 c0 -5 5 -7 10 -4 6 3 10 1 10 -5 0 -6 5 -8 10 -5 17 10 11
25 -10 25 -11 0 -20 -5 -20 -11z"/>
<path d="M2508 363 c7 -3 16 -2 19 1 4 3 -2 6 -13 5 -11 0 -14 -3 -6 -6z"/>
<path d="M440 200 c0 -6 11 -10 25 -10 14 0 28 0 32 -1 4 0 9 4 11 9 1 5 -13
9 -33 10 -19 1 -35 -3 -35 -8z"/>
<path d="M520 198 c0 -9 7 -10 73 -12 29 -1 47 3 47 10 0 7 -21 11 -60 11 -33
0 -60 -4 -60 -9z"/>
<path d="M652 198 c6 -18 28 -21 28 -4 0 9 -7 16 -16 16 -9 0 -14 -5 -12 -12z"/>
<path d="M690 198 c0 -9 3 -10 95 -12 39 -1 78 2 88 7 9 4 17 4 17 -1 0 -4 9
-8 20 -8 11 0 20 5 20 11 0 7 -40 11 -120 11 -66 -1 -120 -4 -120 -8z"/>
<path d="M940 198 c0 -7 16 -10 55 -10 29 0 36 2 31 11 -7 11 -86 10 -86 -1z"/>
<path d="M1040 198 c0 -15 137 -15 152 0 7 7 -13 10 -71 9 -44 -1 -81 -5 -81
-9z"/>
<path d="M1400 200 c0 -5 5 -10 10 -10 6 0 10 5 10 10 0 6 -4 10 -10 10 -5 0
-10 -4 -10 -10z"/>
<path d="M1540 199 c0 -9 32 -17 48 -12 23 8 12 19 -18 19 -16 0 -30 -3 -30
-7z"/>
<path d="M1614 199 c-6 -11 -6 -11 34 -13 17 -1 32 3 32 8 0 13 -58 17 -66 5z"/>
<path d="M1690 197 c0 -7 8 -13 18 -12 26 2 30 20 5 23 -15 2 -23 -2 -23 -11z"/>
<path d="M1750 197 c0 -14 62 -15 67 0 2 5 -12 10 -32 11 -22 1 -35 -3 -35
-11z"/>
<path d="M1830 202 c0 -5 9 -12 21 -15 13 -3 19 -1 16 6 -5 15 -37 22 -37 9z"/>
<path d="M1882 199 c5 -15 95 -18 95 -3 0 6 -22 12 -50 13 -34 1 -48 -2 -45
-10z"/>
<path d="M1990 197 c0 -5 9 -7 20 -4 11 3 20 2 20 -2 0 -4 16 -7 35 -7 19 0
35 4 35 8 0 4 9 5 20 3 11 -2 20 0 20 5 0 5 -34 9 -75 7 -41 -1 -75 -6 -75
-10z"/>
<path d="M2506 198 c3 -5 10 -6 15 -3 13 9 11 12 -6 12 -8 0 -12 -4 -9 -9z"/>
<path d="M5 63 c10 -41 33 -62 66 -61 26 1 29 4 29 35 0 20 4 32 10 28 6 -3
10 -15 10 -25 0 -10 5 -22 11 -26 14 -8 59 15 59 31 0 14 93 11 98 -3 1 -5
-18 -10 -44 -10 -71 -2 -81 -22 -11 -22 52 0 57 2 63 25 l6 24 269 0 c149 0
274 3 279 6 6 4 10 -10 10 -32 0 -22 4 -33 8 -26 4 7 21 11 37 10 22 -1 32 4
40 20 12 29 28 29 40 0 7 -14 19 -22 35 -22 16 0 28 8 35 22 12 28 25 30 25 5
0 -10 5 -23 12 -30 15 -15 58 -16 58 -2 0 6 -11 10 -25 10 -20 0 -24 4 -21 23
5 32 52 32 49 -1 -3 -28 11 -28 26 1 11 21 11 21 8 -8 l-3 -30 96 0 c52 0 101
4 109 9 8 5 12 5 8 0 -3 -5 86 -9 214 -9 l219 0 0 33 c0 17 5 32 11 32 7 0 10
-12 7 -30 -4 -29 -3 -30 37 -30 40 0 41 1 37 30 -3 18 0 30 7 30 6 0 11 -16
11 -35 0 -19 4 -35 9 -35 5 0 9 6 8 12 -2 51 -17 48 263 48 220 0 260 -2 260
-14 0 -25 20 -30 125 -32 55 -2 135 -6 177 -10 57 -5 82 -3 93 6 12 10 19 10
27 2 7 -7 27 -12 45 -12 30 0 33 3 33 30 0 17 5 30 10 30 6 0 10 7 10 15 0 13
-173 15 -1501 15 l-1501 0 7 -27z m2805 -3 c0 -4 -11 -7 -24 -7 -16 0 -23 4
-20 12 5 13 44 9 44 -5z m50 3 c0 -15 -2 -15 -24 -7 -22 9 -20 20 4 20 11 0
20 -6 20 -13z m-2704 -29 c-25 -18 -31 -12 -16 16 9 17 15 19 23 10 9 -9 7
-15 -7 -26z m1212 8 c3 -18 -2 -22 -22 -22 -19 0 -26 5 -26 18 0 24 7 31 28
28 9 -2 18 -13 20 -24z m112 -3 c0 -14 -7 -19 -25 -19 -18 0 -25 5 -25 19 0
11 6 21 13 24 20 7 37 -4 37 -24z m98 19 c18 -18 14 -38 -7 -38 -23 0 -35 15
-27 35 7 18 18 19 34 3z m127 4 c11 -4 21 -14 23 -23 2 -14 -8 -17 -58 -17
-54 0 -60 2 -60 21 0 19 1 19 18 4 23 -21 62 -22 62 -2 0 8 -5 15 -11 15 -5 0
-8 -4 -5 -8 2 -4 -4 -8 -15 -8 -10 0 -19 6 -19 13 0 14 31 16 65 5z m95 -17
c0 -25 -14 -33 -25 -15 -4 6 -11 8 -16 5 -5 -4 -9 1 -9 10 0 9 4 14 9 10 5 -3
12 -1 16 5 11 18 25 10 25 -15z m105 -1 c0 -10 -8 -20 -18 -22 -22 -4 -35 27
-16 39 20 12 34 5 34 -17z m-1835 -3 c0 -14 -5 -18 -20 -14 -26 7 -26 33 0 33
13 0 20 -7 20 -19z m860 6 c0 -8 -3 -17 -7 -20 -9 -9 -34 13 -27 24 8 14 34
11 34 -4z m110 -2 c0 -8 -9 -15 -20 -15 -11 0 -20 7 -20 15 0 8 9 15 20 15 11
0 20 -7 20 -15z m220 -4 c0 -24 -43 -23 -48 2 -3 13 3 17 22 17 19 0 26 -5 26
-19z m257 -1 c1 -11 -2 -18 -8 -15 -11 7 -12 35 -1 35 4 0 8 -9 9 -20z m1003
1 c0 -4 -7 -8 -15 -8 -16 0 -20 9 -9 20 8 8 24 -1 24 -12z m60 -2 c0 -5 -9 -9
-20 -9 -19 0 -26 11 -14 23 8 8 34 -3 34 -14z m40 11 c8 -5 11 -12 8 -16 -10
-9 -38 3 -38 16 0 12 10 13 30 0z m60 -5 c0 -8 -7 -15 -15 -15 -26 0 -18 20
13 29 1 1 2 -6 2 -14z m50 0 c0 -8 -6 -15 -14 -15 -17 0 -28 14 -19 24 12 12
33 6 33 -9z m220 -6 c0 -13 4 -18 13 -13 6 4 8 3 4 -1 -13 -15 -36 -14 -30 1
4 10 0 12 -11 8 -11 -4 -16 -1 -16 10 0 9 8 16 20 16 14 0 20 -7 20 -21z
m-1656 -15 c3 -8 2 -12 -4 -9 -6 3 -10 10 -10 16 0 14 7 11 14 -7z m1576 2 c0
-12 -12 -15 -55 -14 -77 3 -81 25 -4 27 46 1 59 -2 59 -13z"/>
<path d="M1125 40 c3 -5 8 -10 11 -10 2 0 4 5 4 10 0 6 -5 10 -11 10 -5 0 -7
-4 -4 -10z"/>
</g>
</svg>
